# xmcd
#
# Track frame offsets:
# 150
# 14052
# 33527
# 49256
# 60767
# 76980
# 93255
# 103541
# 117950
# 136051
# 150535
# 162348
# 175648
# 192502
# 209068
# 223973
# 240204
# 255998
# 273157
# 286296
#
# Disc length: 4001 seconds
#
#
# Revision: 0
# Processed by: cddbd v1.5.1PL0 Copyright (c) Steve Scherf et al.
# Submitted via: FreeRIP 2.90 
#
DISCID=100f9f14
DTITLE=Gino and Geno - Só Bailão
DYEAR=2004
DGENRE=pop
TTITLE0=O que eu tô fazendo aqui
TTITLE1=Apaixonado por você
TTITLE2=Agora é só alegria
TTITLE3=Jeito caipira
TTITLE4=Mete o dedo
TTITLE5=Ela pensa que vai esquecer
TTITLE6=Tô nos braços da guria
TTITLE7=Tchê, Tchê, Tchê, Tchá, Tchá, Tchá
TTITLE8=É carro
TTITLE9=Dor de cabeça
TTITLE10=A viola chorou
TTITLE11=O bem intencionado
TTITLE12=O que tem a Baiana
TTITLE13=Ela chorou de amor
TTITLE14=Deixe seu recado
TTITLE15=Quando ela quer
TTITLE16=Macaco Velho
TTITLE17=Mulher que não dá, vôa
TTITLE18=Sou feio mas tô na moda
TTITLE19=Tem jeito não
EXTD=
EXTT0=
EXTT1=
EXTT2=
EXTT3=
EXTT4=
EXTT5=
EXTT6=
EXTT7=
EXTT8=
EXTT9=
EXTT10=
EXTT11=
EXTT12=
EXTT13=
EXTT14=
EXTT15=
EXTT16=
EXTT17=
EXTT18=
EXTT19=
PLAYORDER=
